<svg xmlns="http://www.w3.org/2000/svg" width="17.681" height="17.681" viewBox="0 0 17.681 17.681">
  <path id="arrow-circle-left" d="M17.681,8.841a8.841,8.841,0,1,0-8.841,8.841,8.841,8.841,0,0,0,8.841-8.841Zm-16.208,0a7.367,7.367,0,1,1,7.367,7.367A7.367,7.367,0,0,1,1.473,8.841Zm6.541,4.2a.737.737,0,0,0,0-1.042L5.589,9.577l7.671-.005a.737.737,0,0,0,0-1.473L5.589,8.1,8.015,5.678A.737.737,0,1,0,6.991,4.618l-.018.018L4.331,7.277a2.21,2.21,0,0,0,0,3.126h0l2.642,2.642A.737.737,0,0,0,8.015,13.045Z" transform="translate(17.681 17.681) rotate(180)" fill="#fff"/>
</svg>
