<svg xmlns="http://www.w3.org/2000/svg" width="262" height="446" viewBox="0 0 262 446">
  <g id="Group_175" data-name="Group 175" transform="translate(-1268 -314)">
    <path id="Rectangle_11" data-name="Rectangle 11" d="M16.5,1A15.5,15.5,0,0,0,1,16.5v183a15.5,15.5,0,0,0,26.46,10.96A15.4,15.4,0,0,0,32,199.5V16.5A15.5,15.5,0,0,0,16.5,1m0-1A16.5,16.5,0,0,1,33,16.5v183a16.5,16.5,0,0,1-33,0V16.5A16.5,16.5,0,0,1,16.5,0Z" transform="translate(1364 511)" fill="#fff"/>
    <path id="Rectangle_20" data-name="Rectangle 20" d="M24,1A22.98,22.98,0,0,0,1,24V291a23.006,23.006,0,0,0,44.193,8.952A22.855,22.855,0,0,0,47,291V24A22.98,22.98,0,0,0,24,1m0-1A24,24,0,0,1,48,24V291a24,24,0,0,1-48,0V24A24,24,0,0,1,24,0Z" transform="translate(1268 418)" fill="#fff"/>
    <path id="Rectangle_13" data-name="Rectangle 13" d="M16.5,1A15.5,15.5,0,0,0,1,16.5v183a15.5,15.5,0,0,0,26.46,10.96A15.4,15.4,0,0,0,32,199.5V16.5A15.5,15.5,0,0,0,16.5,1m0-1A16.5,16.5,0,0,1,33,16.5v183a16.5,16.5,0,0,1-33,0V16.5A16.5,16.5,0,0,1,16.5,0Z" transform="translate(1413 474)" fill="#33dab9"/>
    <path id="Rectangle_18" data-name="Rectangle 18" d="M16.5,1A15.5,15.5,0,0,0,1,16.5v400a15.5,15.5,0,0,0,26.46,10.96A15.4,15.4,0,0,0,32,416.5V16.5A15.5,15.5,0,0,0,16.5,1m0-1A16.5,16.5,0,0,1,33,16.5v400a16.5,16.5,0,0,1-33,0V16.5A16.5,16.5,0,0,1,16.5,0Z" transform="translate(1497 314)" fill="#fff"/>
    <path id="Rectangle_16" data-name="Rectangle 16" d="M9.5,1A8.51,8.51,0,0,0,1,9.5v35a8.5,8.5,0,0,0,17,0V9.5A8.51,8.51,0,0,0,9.5,1m0-1A9.5,9.5,0,0,1,19,9.5v35a9.5,9.5,0,0,1-19,0V9.5A9.5,9.5,0,0,1,9.5,0Z" transform="translate(1462 706)" fill="#33dab9"/>
    <path id="Rectangle_17" data-name="Rectangle 17" d="M9.5,1A8.51,8.51,0,0,0,1,9.5v175a8.5,8.5,0,0,0,17,0V9.5A8.51,8.51,0,0,0,9.5,1m0-1A9.5,9.5,0,0,1,19,9.5v175a9.5,9.5,0,0,1-19,0V9.5A9.5,9.5,0,0,1,9.5,0Z" transform="translate(1462 500)" fill="#fff"/>
  </g>
</svg>
