<svg xmlns="http://www.w3.org/2000/svg" width="282" height="721" viewBox="0 0 282 721">
  <g id="Group_174" data-name="Group 174" transform="translate(-953 -138)">
    <path id="Rectangle_5" data-name="Rectangle 5" d="M16.5,1A15.5,15.5,0,0,0,1,16.5v400a15.5,15.5,0,0,0,26.46,10.96A15.4,15.4,0,0,0,32,416.5V16.5A15.5,15.5,0,0,0,16.5,1m0-1A16.5,16.5,0,0,1,33,16.5v400a16.5,16.5,0,0,1-33,0V16.5A16.5,16.5,0,0,1,16.5,0Z" transform="translate(1002 247)" fill="#33dab9"/>
    <path id="Rectangle_24" data-name="Rectangle 24" d="M16.5,1A15.5,15.5,0,0,0,1,16.5v183a15.5,15.5,0,0,0,26.46,10.96A15.4,15.4,0,0,0,32,199.5V16.5A15.5,15.5,0,0,0,16.5,1m0-1A16.5,16.5,0,0,1,33,16.5v183a16.5,16.5,0,0,1-33,0V16.5A16.5,16.5,0,0,1,16.5,0Z" transform="translate(1202 573)" fill="#33dab9"/>
    <path id="Rectangle_12" data-name="Rectangle 12" d="M16.5,1A15.5,15.5,0,0,0,1,16.5v168a15.5,15.5,0,0,0,26.46,10.96A15.4,15.4,0,0,0,32,184.5V16.5A15.5,15.5,0,0,0,16.5,1m0-1A16.5,16.5,0,0,1,33,16.5v168a16.5,16.5,0,0,1-33,0V16.5A16.5,16.5,0,0,1,16.5,0Z" transform="translate(953 305)" fill="#fff"/>
    <path id="Rectangle_19" data-name="Rectangle 19" d="M16.5,1A15.5,15.5,0,0,0,1,16.5v188a15.5,15.5,0,0,0,26.46,10.96A15.4,15.4,0,0,0,32,204.5V16.5A15.5,15.5,0,0,0,16.5,1m0-1A16.5,16.5,0,0,1,33,16.5v188a16.5,16.5,0,0,1-33,0V16.5A16.5,16.5,0,0,1,16.5,0Z" transform="translate(953 570)" fill="#3bd4ae"/>
    <path id="Rectangle_21" data-name="Rectangle 21" d="M16.5,1A15.5,15.5,0,0,0,1,16.5v400a15.5,15.5,0,0,0,26.46,10.96A15.4,15.4,0,0,0,32,416.5V16.5A15.5,15.5,0,0,0,16.5,1m0-1A16.5,16.5,0,0,1,33,16.5v400a16.5,16.5,0,0,1-33,0V16.5A16.5,16.5,0,0,1,16.5,0Z" transform="translate(1118 413)" fill="#fff"/>
    <path id="Rectangle_6" data-name="Rectangle 6" d="M20.5,1A19.483,19.483,0,0,0,1,20.5v398a19.505,19.505,0,0,0,37.468,7.59A19.377,19.377,0,0,0,40,418.5V20.5A19.483,19.483,0,0,0,20.5,1m0-1A20.5,20.5,0,0,1,41,20.5v398a20.5,20.5,0,0,1-41,0V20.5A20.5,20.5,0,0,1,20.5,0Z" transform="translate(1051 267)" fill="#fff"/>
    <path id="Rectangle_7" data-name="Rectangle 7" d="M20.5,1A19.483,19.483,0,0,0,1,20.5v508a19.505,19.505,0,0,0,37.468,7.59A19.377,19.377,0,0,0,40,528.5V20.5A19.483,19.483,0,0,0,20.5,1m0-1A20.5,20.5,0,0,1,41,20.5v508a20.5,20.5,0,0,1-41,0V20.5A20.5,20.5,0,0,1,20.5,0Z" transform="translate(1178 138)" fill="#fff"/>
    <path id="Rectangle_8" data-name="Rectangle 8" d="M9.5,1A8.51,8.51,0,0,0,1,9.5v35a8.5,8.5,0,0,0,17,0V9.5A8.51,8.51,0,0,0,9.5,1m0-1A9.5,9.5,0,0,1,19,9.5v35a9.5,9.5,0,0,1-19,0V9.5A9.5,9.5,0,0,1,9.5,0Z" transform="translate(1143 209)" fill="#33dab9"/>
    <path id="Rectangle_22" data-name="Rectangle 22" d="M9.5,1A8.51,8.51,0,0,0,1,9.5v35a8.5,8.5,0,0,0,17,0V9.5A8.51,8.51,0,0,0,9.5,1m0-1A9.5,9.5,0,0,1,19,9.5v35a9.5,9.5,0,0,1-19,0V9.5A9.5,9.5,0,0,1,9.5,0Z" transform="translate(1167 805)" fill="#33dab9"/>
    <path id="Rectangle_9" data-name="Rectangle 9" d="M9.5,1A8.51,8.51,0,0,0,1,9.5v175a8.5,8.5,0,0,0,17,0V9.5A8.51,8.51,0,0,0,9.5,1m0-1A9.5,9.5,0,0,1,19,9.5v175a9.5,9.5,0,0,1-19,0V9.5A9.5,9.5,0,0,1,9.5,0Z" transform="translate(1143 278)" fill="#fff"/>
    <path id="Rectangle_23" data-name="Rectangle 23" d="M9.5,1A8.51,8.51,0,0,0,1,9.5v175a8.5,8.5,0,0,0,17,0V9.5A8.51,8.51,0,0,0,9.5,1m0-1A9.5,9.5,0,0,1,19,9.5v175a9.5,9.5,0,0,1-19,0V9.5A9.5,9.5,0,0,1,9.5,0Z" transform="translate(1167 599)" fill="#fff"/>
    <path id="Rectangle_14" data-name="Rectangle 14" d="M9.5,1A8.51,8.51,0,0,0,1,9.5v175a8.5,8.5,0,0,0,17,0V9.5A8.51,8.51,0,0,0,9.5,1m0-1A9.5,9.5,0,0,1,19,9.5v175a9.5,9.5,0,0,1-19,0V9.5A9.5,9.5,0,0,1,9.5,0Z" transform="translate(1143 512)" fill="#fff"/>
    <path id="Rectangle_10" data-name="Rectangle 10" d="M9.5,1A8.51,8.51,0,0,0,1,9.5v175a8.5,8.5,0,0,0,17,0V9.5A8.51,8.51,0,0,0,9.5,1m0-1A9.5,9.5,0,0,1,19,9.5v175a9.5,9.5,0,0,1-19,0V9.5A9.5,9.5,0,0,1,9.5,0Z" transform="translate(1108 246)" fill="#219f8d"/>
    <path id="Rectangle_15" data-name="Rectangle 15" d="M9.5,1A8.51,8.51,0,0,0,1,9.5v175a8.5,8.5,0,0,0,17,0V9.5A8.51,8.51,0,0,0,9.5,1m0-1A9.5,9.5,0,0,1,19,9.5v175a9.5,9.5,0,0,1-19,0V9.5A9.5,9.5,0,0,1,9.5,0Z" transform="translate(1108 522)" fill="#fff"/>
  </g>
</svg>
