<svg xmlns="http://www.w3.org/2000/svg" width="91.146" height="58.002" viewBox="0 0 91.146 58.002">
  <g id="copy-logo" transform="translate(0 3)">
    <path id="Rectangle_" data-name="Rectangle " d="M0,0H91.146V58H0Z" transform="translate(0 -3)" fill="#3bd4ae" opacity="0"/>
    <path id="Path_" data-name="Path " d="M75.145,132.987v1.383h2.41a1.891,1.891,0,1,1-.409-2c.047.05.093.1.136.153h1.585a3.184,3.184,0,0,0-.745-1.133,3.231,3.231,0,1,0,.947,2.287,3.325,3.325,0,0,0-.07-.691Z" transform="translate(-48.474 -86.481)" fill="#3bd4ae"/>
    <path id="Path_2" data-name="Path " d="M102,133.681v3.231h1.386v-3.231a1.845,1.845,0,0,1,1.845-1.848V130.45A3.227,3.227,0,0,0,102,133.681" transform="translate(-68.096 -86.483)" fill="#3bd4ae"/>
    <path id="Path_3" data-name="Path " d="M126.168,134.986a1.855,1.855,0,1,1,.538-1.306,1.778,1.778,0,0,1-.538,1.306m-1.306-4.537a3.227,3.227,0,1,0,2.283.944,3.124,3.124,0,0,0-2.283-.944" transform="translate(-81.207 -86.483)" fill="#3bd4ae"/>
    <path id="Path_4" data-name="Path " d="M156.072,133.681a1.848,1.848,0,0,1-3.693,0V130.45H151v3.231a3.234,3.234,0,0,0,6.465,0V130.45h-1.386Z" transform="translate(-100.81 -86.483)" fill="#3bd4ae"/>
    <path id="Path_5" data-name="Path " d="M184.88,134.986a1.855,1.855,0,1,1,.538-1.306,1.791,1.791,0,0,1-.538,1.306m-1.31-4.537a3.227,3.227,0,0,0-3.231,3.231V138.3h1.386v-1.958a3.234,3.234,0,0,0,4.151-4.946,3.124,3.124,0,0,0-2.287-.944" transform="translate(-120.398 -86.483)" fill="#3bd4ae"/>
    <path id="Path_6" data-name="Path " d="M74.019,26.368H87.583a1.532,1.532,0,0,0,0-3.061H74.019a1.532,1.532,0,1,0,0,3.061" transform="translate(-48.345 -14.95)" fill="#3bd4ae"/>
    <path id="Path_7" data-name="Path " d="M11.3,13.317a1.529,1.529,0,0,0,1.107-.472l7.159-7.492V21.709a1.529,1.529,0,0,0,3.058,0V1.531A1.529,1.529,0,0,0,19.985.478L11.3,9.571,2.632.478A1.529,1.529,0,0,0,0,1.531V39.667a1.532,1.532,0,1,0,3.061,0V5.353L10.2,12.845a1.529,1.529,0,0,0,1.094.472" transform="translate(0.005 0.607)" fill="#3bd4ae"/>
    <path id="Path_8" data-name="Path " d="M74.162,49.574H87.726a1.529,1.529,0,0,0,0-3.058H75.691V42.511H87.726a1.532,1.532,0,0,0,0-3.061H74.162a1.529,1.529,0,0,0-1.532,1.529v7.066a1.529,1.529,0,0,0,1.532,1.529" transform="translate(-48.488 -25.729)" fill="#e9e9e9"/>
    <path id="Path_9" data-name="Path " d="M131.611,26.371h10.051a2.852,2.852,0,0,1,2.848,2.848v3.656a2.855,2.855,0,0,1-2.848,2.865H131.611ZM130.079,38.8h11.583a5.916,5.916,0,0,0,5.916-5.91V29.233a5.916,5.916,0,0,0-5.916-5.923H130.079a1.529,1.529,0,0,0-1.529,1.529V37.27a1.529,1.529,0,0,0,1.529,1.529" transform="translate(-85.822 -14.954)" fill="#e9e9e9"/>
    <path id="Path_10" data-name="Path " d="M221.344,86.579A2.862,2.862,0,0,1,218.5,89.45H208.448V80.014H218.5a2.858,2.858,0,0,1,2.845,2.868ZM218.5,76.94H206.916a1.536,1.536,0,0,0-1.536,1.536v12.5a1.536,1.536,0,0,0,1.536,1.536H218.5a5.936,5.936,0,0,0,5.916-5.939V82.883a5.936,5.936,0,0,0-5.92-5.923" transform="translate(-137.116 -50.759)" fill="#e9e9e9"/>
    <path id="Path_11" data-name="Path " d="M206.107,38.517a1.532,1.532,0,0,0,2.111-.472l2.509-4.012h8.243l2.659,4.038a1.529,1.529,0,0,0,2.559-1.662l-8.176-12.5a1.529,1.529,0,1,0-2.559,1.662l3.516,5.374H209.88a1.529,1.529,0,0,0-1.29.731l-2.958,4.73a1.529,1.529,0,0,0,.485,2.107" transform="translate(-137.128 -14.835)" fill="#e9e9e9"/>
    <path id="Path_12" data-name="Path " d="M59.48,71.286a1.526,1.526,0,0,0,.957-.332,1.559,1.559,0,0,0,.3-2.067L52.5,56.287a1.532,1.532,0,0,0-2.157-.415,1.569,1.569,0,0,0-.376,2.14l3.586,5.481H46.165a1.536,1.536,0,0,0-1.3.718L42.382,68.2h-13.6V51.461a3.377,3.377,0,1,0-3.061,0V69.718a1.532,1.532,0,0,0,1.532,1.529H42.874a1.5,1.5,0,0,0,.332.04,1.526,1.526,0,0,0,1.3-.721l2.509-4.008h8.542l2.659,4.035a1.536,1.536,0,0,0,1.283.695" transform="translate(-15.937 -29.484)" fill="#e9e9e9"/>
    <path id="Path_13" data-name="Path " d="M159.559,92.32a1.529,1.529,0,0,0,.851-1.369V78.437a1.529,1.529,0,0,0-3.058,0v9.429L143.306,77.191a1.529,1.529,0,0,0-2.456,1.22V90.987a1.529,1.529,0,0,0,3.058,0V81.495l14.046,10.672a1.526,1.526,0,0,0,1.605.153" transform="translate(-94.034 -50.717)" fill="#e9e9e9"/>
    <path id="Path_14" data-name="Path " d="M192.289,23.16a1.529,1.529,0,0,0-1.529,1.529v12.53a1.532,1.532,0,0,0,3.061,0V24.689a1.529,1.529,0,0,0-1.532-1.529" transform="translate(-127.355 -14.853)" fill="#e9e9e9"/>
    <path id="Path_15" data-name="Path " d="M115.759,2.935a.505.505,0,0,0,.5-.5V.386a.5.5,0,1,0-1,0V2.433a.505.505,0,0,0,.5.5" transform="translate(-76.949 0.725)" fill="#e9e9e9"/>
    <path id="Path_16" data-name="Path " d="M99.595,4.233a.6.6,0,1,1,.007,0" transform="translate(-66.094 -1.414)" fill="#e9e9e9"/>
    <path id="Path_17" data-name="Path " d="M73.016,6.929h2.5a1.233,1.233,0,0,0,.156,0h7.711a.874.874,0,0,0,.163-.017v.017A1.04,1.04,0,0,0,84.6,5.888V3.532a.522.522,0,0,0-1.04,0V5.925H77.2a1.908,1.908,0,0,0,.239-.931v-.05A1.928,1.928,0,0,0,75.519,3h-2.5a.5.5,0,1,0,0,1h2.5a.927.927,0,0,1,.924.934v.063a.927.927,0,0,1-.924.934h-2.5a.5.5,0,1,0,0,1" transform="translate(-48.372 -1.394)" fill="#e9e9e9"/>
    <path id="Path_18" data-name="Path " d="M112.8,4.926h.053a1.928,1.928,0,0,0,1.931-1.934V.5a.5.5,0,1,0-1,0V2.991a.931.931,0,0,1-.934.924H112.8a.931.931,0,0,1-.934-.924v-.03a.5.5,0,0,0-1,0v.03A1.928,1.928,0,0,0,112.8,4.912" transform="translate(-74.018 0.609)" fill="#e9e9e9"/>
    <path id="Path_19" data-name="Path " d="M162.183,16.062a.6.6,0,1,0-.6.6.6.6,0,0,0,.6-.6" transform="translate(-107.473 -9.713)" fill="#e9e9e9"/>
    <path id="Path_20" data-name="Path " d="M166.283,16.062a.6.6,0,1,0-.6.6.6.6,0,0,0,.6-.6" transform="translate(-110.21 -9.713)" fill="#e9e9e9"/>
    <path id="Path_21" data-name="Path " d="M130.6,16.062a.6.6,0,1,0,.6-.6.6.6,0,0,0-.6.6" transform="translate(-87.191 -9.713)" fill="#e9e9e9"/>
    <path id="Path" d="M134.69,16.062a.6.6,0,1,0,.6-.6.6.6,0,0,0-.6.6" transform="translate(-89.921 -9.713)" fill="#e9e9e9"/>
    <path id="Path_22" data-name="Path " d="M130.5,5.035h.05A1.928,1.928,0,0,0,132.485,3.1V1.618a.5.5,0,0,0-1,0V3.1a.931.931,0,0,1-.934.924h-.05a.931.931,0,0,1-.937-.924V.608a.5.5,0,0,0-1,0V3.1A1.928,1.928,0,0,0,130.5,5.022" transform="translate(-85.835 0.5)" fill="#e9e9e9"/>
    <path id="Path_23" data-name="Path " d="M159.2,2.995h-2.144a.462.462,0,0,0-.1,0,.911.911,0,0,0-.808.927V5.916h-3.207V3.526a.522.522,0,1,0-1.044,0V5.919h-5.361a1.908,1.908,0,0,0,.239-.931v-.05a1.928,1.928,0,0,0-1.928-1.944h-2.5a.5.5,0,0,0,0,1h2.5a.931.931,0,0,1,.927.934v.063a.927.927,0,0,1-.894.931h-2.536a.5.5,0,1,0,0,1h13.89a.957.957,0,0,0,.957-.931V5.939h0V3.992h1.994a.931.931,0,0,1,.951.947v.05a.931.931,0,0,1-.924.934H158.12a.5.5,0,0,0,0,1h1.094a1.931,1.931,0,0,0,1.921-1.931v-.05A1.928,1.928,0,0,0,159.2,2.995" transform="translate(-94.659 -1.389)" fill="#e9e9e9"/>
  </g>
</svg>
