<svg xmlns="http://www.w3.org/2000/svg" width="904" height="201" viewBox="0 0 904 201">
  <g id="counter-line" fill="none">
    <path d="M50,0H854a50,50,0,0,1,50,50V151a50,50,0,0,1-50,50H50A50,50,0,0,1,0,151V50A50,50,0,0,1,50,0Z" stroke="none"/>
    <path d="M 50 2 C 43.51910400390625 2 37.23321533203125 3.268890380859375 31.31689453125 5.771224975585938 C 25.601318359375 8.18878173828125 20.4677734375 11.64999389648438 16.05889892578125 16.05888366699219 C 11.6500244140625 20.4677734375 8.18878173828125 25.60133361816406 5.771240234375 31.31689453125 C 3.26885986328125 37.23321533203125 2 43.51910400390625 2 50 L 2 151 C 2 157.4808959960938 3.26885986328125 163.7667846679688 5.771240234375 169.68310546875 C 8.18878173828125 175.3986663818359 11.6500244140625 180.5322265625 16.05889892578125 184.9411163330078 C 20.4677734375 189.3500061035156 25.601318359375 192.8112182617188 31.31689453125 195.2287750244141 C 37.23321533203125 197.7311096191406 43.51910400390625 199 50 199 L 854 199 C 860.4808959960938 199 866.7667846679688 197.7311096191406 872.68310546875 195.2287750244141 C 878.398681640625 192.8112182617188 883.5322265625 189.3500061035156 887.9411010742188 184.9411163330078 C 892.3499755859375 180.5322265625 895.8112182617188 175.3986663818359 898.228759765625 169.68310546875 C 900.7311401367188 163.7667846679688 902 157.4808959960938 902 151 L 902 50 C 902 43.51910400390625 900.7311401367188 37.23321533203125 898.228759765625 31.31689453125 C 895.8112182617188 25.60133361816406 892.3499755859375 20.4677734375 887.9411010742188 16.05888366699219 C 883.5322265625 11.64999389648438 878.398681640625 8.18878173828125 872.68310546875 5.771224975585938 C 866.7667846679688 3.268890380859375 860.4808959960938 2 854 2 L 50 2 M 50 0 L 854 0 C 881.6141967773438 0 904 22.38577270507812 904 50 L 904 151 C 904 178.6142272949219 881.6141967773438 201 854 201 L 50 201 C 22.38580322265625 201 0 178.6142272949219 0 151 L 0 50 C 0 22.38577270507812 22.38580322265625 0 50 0 Z" stroke="none" fill="#fff"/>
  </g>
</svg>
