<svg xmlns="http://www.w3.org/2000/svg" width="41.209" height="41.209" viewBox="0 0 41.209 41.209">
  <g id="counter-photo1" transform="translate(-1 -1)">
    <g id="Group" transform="translate(4.341 4.341)" opacity="0.1">
      <path id="Path" d="M32.593,36.714H2.374A1.374,1.374,0,0,1,1,35.341V2.374A1.374,1.374,0,0,1,2.374,1h30.22a1.374,1.374,0,0,1,1.374,1.374V35.341A1.374,1.374,0,0,1,32.593,36.714ZM3.747,33.967H31.22V3.747H3.747Z" transform="translate(-1 -1)" fill="#3bd4ae"/>
    </g>
    <path id="Path-2" data-name="Path" d="M32.593,36.714H2.374A1.374,1.374,0,0,1,1,35.341V2.374A1.374,1.374,0,0,1,2.374,1h30.22a1.374,1.374,0,0,1,1.374,1.374V35.341A1.374,1.374,0,0,1,32.593,36.714ZM3.747,33.967H31.22V3.747H3.747Z" transform="translate(0 0)" fill="#3bd4ae"/>
    <path id="Path-3" data-name="Path" d="M38.593,40.714H8.374a1.374,1.374,0,1,1,0-2.747H37.22V7.747H35.846a1.374,1.374,0,0,1,0-2.747h2.747a1.374,1.374,0,0,1,1.374,1.374V39.341A1.374,1.374,0,0,1,38.593,40.714Z" transform="translate(2.242 1.495)" fill="#3bd4ae"/>
  </g>
</svg>
