<svg xmlns="http://www.w3.org/2000/svg" width="45.901" height="45.901" viewBox="0 0 45.901 45.901">
  <g id="counter-photo3" transform="translate(-1 -1)">
    <g id="Group" transform="translate(3.416 3.416)" opacity="0.1">
      <path id="Path" d="M18.7,27.394a8.7,8.7,0,1,1,8.7-8.7A8.7,8.7,0,0,1,18.7,27.394Zm0-14.495a5.8,5.8,0,1,0,5.8,5.8A5.8,5.8,0,0,0,18.7,12.9Z" transform="translate(3.045 3.045)" fill="#3bd4ae"/>
      <path id="Path_" data-name="Path " d="M27.293,35.053H12.8a5.8,5.8,0,0,1-5.8-5.8v-3.7a1.449,1.449,0,0,1,.913-1.334l5.276-2.116a1.449,1.449,0,1,1,1.058,2.7L9.9,26.544v2.711a2.9,2.9,0,0,0,2.9,2.9H27.293a2.9,2.9,0,0,0,2.9-2.9V26.544L25.843,24.8a1.451,1.451,0,0,1,1.073-2.7l5.276,2.116a1.449,1.449,0,0,1,.913,1.334v3.7a5.8,5.8,0,0,1-5.812,5.8Z" transform="translate(1.697 8.432)" fill="#3bd4ae"/>
      <path id="Path_2" data-name="Path " d="M11.247,15.495a7.247,7.247,0,1,1,7.247-7.247A7.247,7.247,0,0,1,11.247,15.495Zm0-11.6A4.348,4.348,0,1,0,15.6,8.247,4.348,4.348,0,0,0,11.247,3.9Z" transform="translate(0.348 -1)" fill="#3bd4ae"/>
      <path id="Path_3" data-name="Path " d="M11.146,22.986H6.8a5.8,5.8,0,0,1-5.8-5.8V14.652A1.449,1.449,0,0,1,1.913,13.3l4.624-1.812A1.435,1.435,0,1,1,7.6,14.159L3.9,15.637v1.551a2.9,2.9,0,0,0,2.9,2.9h4.348a1.449,1.449,0,0,1,0,2.9Z" transform="translate(-1 3.67)" fill="#3bd4ae"/>
      <path id="Path_4" data-name="Path " d="M25.247,15.495a7.247,7.247,0,1,1,7.247-7.247A7.247,7.247,0,0,1,25.247,15.495Zm0-11.6A4.348,4.348,0,1,0,29.6,8.247,4.348,4.348,0,0,0,25.247,3.9Z" transform="translate(6.641 -1)" fill="#3bd4ae"/>
      <path id="Path-2" data-name="Path" d="M28.8,22.989H24.449a1.449,1.449,0,0,1,0-2.9H28.8a2.9,2.9,0,0,0,2.9-2.9V15.64L28,14.191a1.455,1.455,0,0,1,1.058-2.711l4.624,1.812A1.449,1.449,0,0,1,34.6,14.64v2.537a5.8,5.8,0,0,1-5.8,5.812Z" transform="translate(8.889 3.667)" fill="#3bd4ae"/>
    </g>
    <path id="Path-3" data-name="Path" d="M18.7,27.394a8.7,8.7,0,1,1,8.7-8.7A8.7,8.7,0,0,1,18.7,27.394Zm0-14.495a5.8,5.8,0,1,0,5.8,5.8A5.8,5.8,0,0,0,18.7,12.9Z" transform="translate(4.045 4.045)" fill="#3bd4ae"/>
    <path id="Path_5" data-name="Path " d="M27.293,35.053H12.8a5.8,5.8,0,0,1-5.8-5.8v-3.7a1.449,1.449,0,0,1,.913-1.334l5.276-2.116a1.449,1.449,0,1,1,1.058,2.7L9.9,26.544v2.711a2.9,2.9,0,0,0,2.9,2.9H27.293a2.9,2.9,0,0,0,2.9-2.9V26.544L25.843,24.8a1.451,1.451,0,0,1,1.073-2.7l5.276,2.116a1.449,1.449,0,0,1,.913,1.334v3.7a5.8,5.8,0,0,1-5.812,5.8Z" transform="translate(2.697 9.432)" fill="#3bd4ae"/>
    <path id="Path_6" data-name="Path " d="M11.247,15.495a7.247,7.247,0,1,1,7.247-7.247A7.247,7.247,0,0,1,11.247,15.495Zm0-11.6A4.348,4.348,0,1,0,15.6,8.247,4.348,4.348,0,0,0,11.247,3.9Z" transform="translate(1.348)" fill="#3bd4ae"/>
    <path id="Path_7" data-name="Path " d="M11.146,22.986H6.8a5.8,5.8,0,0,1-5.8-5.8V14.652A1.449,1.449,0,0,1,1.913,13.3l4.624-1.812A1.435,1.435,0,1,1,7.6,14.159L3.9,15.637v1.551a2.9,2.9,0,0,0,2.9,2.9h4.348a1.449,1.449,0,0,1,0,2.9Z" transform="translate(0 4.67)" fill="#3bd4ae"/>
    <path id="Path_8" data-name="Path " d="M25.247,15.495a7.247,7.247,0,1,1,7.247-7.247A7.247,7.247,0,0,1,25.247,15.495Zm0-11.6A4.348,4.348,0,1,0,29.6,8.247,4.348,4.348,0,0,0,25.247,3.9Z" transform="translate(7.641)" fill="#3bd4ae"/>
    <path id="Path-4" data-name="Path" d="M28.8,22.989H24.449a1.449,1.449,0,0,1,0-2.9H28.8a2.9,2.9,0,0,0,2.9-2.9V15.64L28,14.191a1.455,1.455,0,0,1,1.058-2.711l4.624,1.812A1.449,1.449,0,0,1,34.6,14.64v2.537a5.8,5.8,0,0,1-5.8,5.812Z" transform="translate(9.889 4.667)" fill="#3bd4ae"/>
  </g>
</svg>
