<svg xmlns="http://www.w3.org/2000/svg" width="33.76" height="42.403" viewBox="0 0 33.76 42.403">
  <g id="counter-photo-4" transform="translate(-516 -2023)">
    <path id="_01" data-name="01" d="M27.38,8A15.38,15.38,0,0,1,42.76,23.38c0,6.015-3.682,13.305-10.965,21.967a5.767,5.767,0,0,1-8.829,0C15.682,36.685,12,29.395,12,23.38A15.38,15.38,0,0,1,27.38,8Zm0,2.884a12.5,12.5,0,0,0-12.5,12.5c0,5.185,3.4,11.921,10.289,20.112a2.884,2.884,0,0,0,4.414,0C36.474,35.3,39.876,28.565,39.876,23.38A12.5,12.5,0,0,0,27.38,10.884Zm0,5.767a6.729,6.729,0,1,1-6.729,6.729A6.73,6.73,0,0,1,27.38,16.651Zm0,2.884a3.845,3.845,0,1,0,3.845,3.845A3.846,3.846,0,0,0,27.38,19.535Z" transform="translate(507 2018)" fill="#3bd4ae" opacity="0.1"/>
    <path id="_01-2" data-name="01" d="M27.38,8A15.38,15.38,0,0,1,42.76,23.38c0,6.015-3.682,13.305-10.965,21.967a5.767,5.767,0,0,1-8.829,0C15.682,36.685,12,29.395,12,23.38A15.38,15.38,0,0,1,27.38,8Zm0,2.884a12.5,12.5,0,0,0-12.5,12.5c0,5.185,3.4,11.921,10.289,20.112a2.884,2.884,0,0,0,4.414,0C36.474,35.3,39.876,28.565,39.876,23.38A12.5,12.5,0,0,0,27.38,10.884Zm0,5.767a6.729,6.729,0,1,1-6.729,6.729A6.73,6.73,0,0,1,27.38,16.651Zm0,2.884a3.845,3.845,0,1,0,3.845,3.845A3.846,3.846,0,0,0,27.38,19.535Z" transform="translate(504 2015)" fill="#3bd4ae"/>
  </g>
</svg>
