<svg id="logo_-_Media_land" data-name="logo - Media land" xmlns="http://www.w3.org/2000/svg" width="138.958" height="81.509" viewBox="0 0 138.958 81.509">
  <g id="logo">
    <path id="Path_76" data-name="Path 76" d="M595.071,124.045v2.2h3.835a2.957,2.957,0,0,1-2.733,1.836,2.939,2.939,0,1,1,2.08-5.018c.078.078.151.159.221.242h2.52a5.09,5.09,0,0,0-1.183-1.8,5.145,5.145,0,1,0,1.507,3.638,5.4,5.4,0,0,0-.11-1.1Z" transform="translate(-552.616 -50.987)" fill="#fff"/>
    <path id="Path_77" data-name="Path 77" d="M603.569,125.146v5.145h2.2v-5.145a2.936,2.936,0,0,1,2.939-2.939V120a5.142,5.142,0,0,0-5.143,5.143" transform="translate(-549.618 -50.987)" fill="#fff"/>
    <path id="Path_78" data-name="Path 78" d="M619.181,127.227a2.945,2.945,0,1,1,.86-2.08,2.835,2.835,0,0,1-.86,2.08M617.1,120a5.142,5.142,0,1,0,3.637,1.505A4.957,4.957,0,0,0,617.1,120" transform="translate(-547.613 -50.987)" fill="#fff"/>
    <path id="Path_79" data-name="Path 79" d="M632.579,125.146a2.939,2.939,0,1,1-5.878,0V120h-2.2v5.143a5.144,5.144,0,1,0,10.288,0V120h-2.205Z" transform="translate(-544.615 -50.987)" fill="#fff"/>
    <path id="Path_80" data-name="Path 80" d="M644.261,127.227a2.948,2.948,0,1,1,.859-2.08,2.838,2.838,0,0,1-.859,2.08M642.18,120a5.14,5.14,0,0,0-5.143,5.143V132.5h2.2v-3.116A5.149,5.149,0,1,0,642.18,120" transform="translate(-541.618 -50.987)" fill="#fff"/>
    <path id="Path_81" data-name="Path 81" d="M593.478,79.126h21.591a2.435,2.435,0,1,0,0-4.871H593.478a2.435,2.435,0,1,0,0,4.871" transform="translate(-552.613 -61.923)" fill="#fff"/>
    <path id="Path_82" data-name="Path 82" d="M578.035,85.5a2.433,2.433,0,0,0,1.762-.755l11.375-11.925V98.855a2.436,2.436,0,1,0,4.872,0V66.738a2.436,2.436,0,0,0-4.2-1.681l-13.81,14.478-13.81-14.478a2.436,2.436,0,0,0-4.2,1.681v60.706a2.436,2.436,0,0,0,4.872,0V72.819l11.375,11.925a2.433,2.433,0,0,0,1.762.755" transform="translate(-560.027 -64.302)" fill="#fff"/>
    <path id="Path_83" data-name="Path 83" d="M593.478,97.264h21.591a2.435,2.435,0,1,0,0-4.871H595.913V86.019h19.156a2.435,2.435,0,1,0,0-4.871H593.478a2.436,2.436,0,0,0-2.436,2.436V94.828a2.436,2.436,0,0,0,2.436,2.436" transform="translate(-552.613 -60.275)" fill="#fff"/>
    <path id="Path_84" data-name="Path 84" d="M619.788,79.126H635.8a4.542,4.542,0,0,1,4.535,4.536v5.845a4.541,4.541,0,0,1-4.535,4.535H619.788Zm-2.436,19.786H635.8a9.417,9.417,0,0,0,9.406-9.406V83.662a9.418,9.418,0,0,0-9.406-9.407H617.352a2.436,2.436,0,0,0-2.436,2.436V96.476a2.436,2.436,0,0,0,2.436,2.436" transform="translate(-546.906 -61.923)" fill="#fff"/>
    <path id="Path_85" data-name="Path 85" d="M673.137,112.5a4.554,4.554,0,0,1-4.527,4.571h-16V102.046h16a4.554,4.554,0,0,1,4.527,4.571ZM668.609,97.16H650.163A2.444,2.444,0,0,0,647.72,99.6v19.905a2.443,2.443,0,0,0,2.443,2.443h18.446a9.446,9.446,0,0,0,9.413-9.456v-5.879a9.446,9.446,0,0,0-9.413-9.456" transform="translate(-539.064 -56.447)" fill="#fff"/>
    <path id="Path_86" data-name="Path 86" d="M648.865,98.643a2.435,2.435,0,0,0,3.355-.773l3.993-6.384h13.124l4.2,6.426a2.436,2.436,0,0,0,4.076-2.668l-12.99-19.85a2.436,2.436,0,0,0-4.077,2.666l5.6,8.554H654.866a2.436,2.436,0,0,0-2.065,1.144l-4.708,7.527a2.435,2.435,0,0,0,.773,3.357" transform="translate(-539.064 -61.914)" fill="#fff"/>
    <path id="Path_87" data-name="Path 87" d="M626.9,125.271a2.432,2.432,0,0,0,1.524-.538,2.483,2.483,0,0,0,.472-3.292L615.777,101.4a2.435,2.435,0,0,0-3.433-.662,2.5,2.5,0,0,0-.587,3.414l5.708,8.723H605.7a2.436,2.436,0,0,0-2.064,1.144l-3.956,6.323h-21.65V93.714a5.376,5.376,0,1,0-4.872,0v29.062a2.435,2.435,0,0,0,2.436,2.435h24.885a2.383,2.383,0,0,0,.51.061,2.434,2.434,0,0,0,2.067-1.144l3.993-6.384h13.6l4.2,6.426a2.436,2.436,0,0,0,2.041,1.1" transform="translate(-557.59 -59.701)" fill="#fff"/>
    <path id="Path_88" data-name="Path 88" d="M649.953,121.711a2.435,2.435,0,0,0,1.353-2.182V99.61a2.435,2.435,0,1,0-4.871,0v15.009l-22.357-16.99a2.435,2.435,0,0,0-3.909,1.939v20.021a2.435,2.435,0,1,0,4.871,0V104.477L647.4,121.468a2.435,2.435,0,0,0,2.556.243" transform="translate(-545.65 -56.454)" fill="#fff"/>
    <path id="Path_89" data-name="Path 89" d="M643.917,74.192a2.436,2.436,0,0,0-2.436,2.436V96.57a2.436,2.436,0,1,0,4.872,0V76.628a2.436,2.436,0,0,0-2.436-2.436" transform="translate(-540.555 -61.938)" fill="#fff"/>
    <path id="Path_90" data-name="Path 90" d="M610.038,69.158a.8.8,0,0,0,.8-.8V65.1a.8.8,0,1,0-1.593,0v3.261a.8.8,0,0,0,.8.8" transform="translate(-548.262 -64.302)" fill="#fff"/>
    <path id="Path_91" data-name="Path 91" d="M603.247,67.511a.956.956,0,1,0-.957-.955.955.955,0,0,0,.957.955" transform="translate(-549.924 -63.992)" fill="#fff"/>
    <path id="Path_92" data-name="Path 92" d="M591.836,71.833h3.986c.083,0,.165-.006.247-.014v.016h12.275a1.594,1.594,0,0,0,.258-.026v.026a1.658,1.658,0,0,0,1.659-1.659V66.428a.83.83,0,0,0-1.659,0v3.81H598.5a3.075,3.075,0,0,0,.38-1.482v-.082a3.073,3.073,0,0,0-3.063-3.075h-3.986a.795.795,0,0,0,0,1.59h3.986a1.481,1.481,0,0,1,1.473,1.486v.082a1.482,1.482,0,0,1-1.473,1.487h-3.986a.795.795,0,0,0,0,1.59" transform="translate(-552.613 -63.992)" fill="#fff"/>
    <path id="Path_93" data-name="Path 93" d="M610.445,72.145h.082a3.071,3.071,0,0,0,3.075-3.062V65.1a.794.794,0,1,0-1.588,0v3.986a1.482,1.482,0,0,1-1.487,1.472h-.082a1.481,1.481,0,0,1-1.487-1.472v-.064a.795.795,0,1,0-1.59,0v.064a3.072,3.072,0,0,0,3.077,3.062" transform="translate(-548.71 -64.302)" fill="#fff"/>
    <path id="Path_94" data-name="Path 94" d="M630.681,71.861a.957.957,0,1,0-.957.955.957.957,0,0,0,.957-.955" transform="translate(-543.595 -62.724)" fill="#fff"/>
    <path id="Path_95" data-name="Path 95" d="M632.43,71.861a.956.956,0,1,0-.956.955.957.957,0,0,0,.956-.955" transform="translate(-543.176 -62.724)" fill="#fff"/>
    <path id="Path_96" data-name="Path 96" d="M615.792,71.861a.957.957,0,1,0,.957-.957.956.956,0,0,0-.957.957" transform="translate(-546.696 -62.724)" fill="#fff"/>
    <path id="Path_97" data-name="Path 97" d="M617.541,71.861a.957.957,0,1,0,.956-.957.956.956,0,0,0-.956.957" transform="translate(-546.278 -62.724)" fill="#fff"/>
    <path id="Path_98" data-name="Path 98" d="M618,72.145h.082a3.071,3.071,0,0,0,3.075-3.062V66.7a.794.794,0,1,0-1.588,0v2.38a1.482,1.482,0,0,1-1.487,1.472H618a1.481,1.481,0,0,1-1.487-1.472V65.1a.795.795,0,1,0-1.59,0v3.986A3.072,3.072,0,0,0,618,72.145" transform="translate(-546.904 -64.302)" fill="#fff"/>
    <path id="Path_99" data-name="Path 99" d="M648.27,65.6h-3.414a.677.677,0,0,0-.156.017,1.452,1.452,0,0,0-1.286,1.441v3.186h-.388v-.006h-4.721c0-.02.006-.04.006-.061V66.428a.83.83,0,0,0-1.659,0v3.809h-8.541a3.063,3.063,0,0,0,.38-1.481v-.082a3.073,3.073,0,0,0-3.062-3.075h-3.987a.795.795,0,0,0,0,1.59h3.987a1.482,1.482,0,0,1,1.473,1.486v.082a1.479,1.479,0,0,1-1.42,1.481H625.1v.006h-3.659a.794.794,0,1,0,0,1.588H625.1v0h12.511c.051,0,.116,0,.191-.007.014,0,.026,0,.04,0h5.594l.007,0a.285.285,0,0,0,.032,0h.077a1.518,1.518,0,0,0,1.518-1.517v-.072h0c0-.011,0-.022,0-.033V67.189h3.2a1.481,1.481,0,0,1,1.473,1.486v.082a1.481,1.481,0,0,1-1.473,1.487h-1.74a.794.794,0,0,0,0,1.588h1.74a3.071,3.071,0,0,0,3.062-3.075v-.082A3.072,3.072,0,0,0,648.27,65.6" transform="translate(-545.535 -63.992)" fill="#fff"/>
  </g>
</svg>
