<svg xmlns="http://www.w3.org/2000/svg" width="13.304" height="10.805" viewBox="0 0 13.304 10.805">
  <path id="t" d="M11.936,6.074c.008.118.008.236.008.355a7.7,7.7,0,0,1-7.758,7.758A7.705,7.705,0,0,1,0,12.962,5.641,5.641,0,0,0,.658,13a5.461,5.461,0,0,0,3.385-1.165A2.731,2.731,0,0,1,1.494,9.94a3.439,3.439,0,0,0,.515.042,2.884,2.884,0,0,0,.718-.093A2.727,2.727,0,0,1,.54,7.213V7.18a2.746,2.746,0,0,0,1.232.346A2.731,2.731,0,0,1,.929,3.879,7.75,7.75,0,0,0,6.551,6.732a3.078,3.078,0,0,1-.068-.625A2.729,2.729,0,0,1,11.2,4.242a5.368,5.368,0,0,0,1.731-.658,2.719,2.719,0,0,1-1.2,1.5,5.466,5.466,0,0,0,1.57-.422,5.861,5.861,0,0,1-1.368,1.41Z" transform="translate(0 -3.381)" fill="#fff"/>
</svg>
