<svg xmlns="http://www.w3.org/2000/svg" width="15.367" height="10.805" viewBox="0 0 15.367 10.805">
  <path id="y" d="M16.1,6.191a1.931,1.931,0,0,0-1.359-1.367,45.632,45.632,0,0,0-6-.323,45.632,45.632,0,0,0-6,.323A1.931,1.931,0,0,0,1.371,6.191,20.256,20.256,0,0,0,1.05,9.913a20.256,20.256,0,0,0,.321,3.723A1.9,1.9,0,0,0,2.73,14.982a45.632,45.632,0,0,0,6,.323,45.632,45.632,0,0,0,6-.323A1.9,1.9,0,0,0,16.1,13.636a20.256,20.256,0,0,0,.321-3.723A20.256,20.256,0,0,0,16.1,6.191ZM7.162,12.2V7.629l4.016,2.285L7.162,12.2Z" transform="translate(-1.05 -4.5)" fill="#fff"/>
</svg>
