<?xml version="1.0" encoding="utf-8"?>
<!-- Generator: Adobe Illustrator 21.1.0, SVG Export Plug-In . SVG Version: 6.00 Build 0)  -->
<svg version="1.1" id="Layer_1" xmlns="http://www.w3.org/2000/svg" xmlns:xlink="http://www.w3.org/1999/xlink" x="0px" y="0px"
	 viewBox="0 0 983.5 629.1" style="enable-background:new 0 0 983.5 629.1;" xml:space="preserve">
<style type="text/css">
	.st0{fill:#B72126;}
</style>
<path class="st0" d="M118,602.3C104.3,618.8,87.4,627,67.4,627c-18.3,0-33.7-6.4-46.5-19.2C8.1,595,1.7,579.6,1.7,561.3
	c0-16.4,4.6-29.6,13.7-39.7L347.8,74.4c15.5-21,36-38.1,61.5-51.3c25.5-13.2,52.9-19.8,82.1-19.8c27.4,0,53.3,5.9,78,17.8
	C594,32.9,614,49.3,629.5,70.3l332.4,444.5c5.5,6.4,10,13.5,13.7,21.2c3.6,7.8,5.5,16.2,5.5,25.3c0,18.2-6.4,33.7-19.2,46.5
	c-12.8,12.8-28.3,19.2-46.5,19.2c-21.9,0-39.2-8.7-52-26L544.7,175.6c-6.4-7.3-14.4-15.3-23.9-23.9c-9.6-8.7-19.4-13-29.4-13
	c-10,0-19.8,4.3-29.4,13c-9.6,8.7-17.1,16.6-22.6,23.9L118,602.3z"/>
</svg>
