<?xml version="1.0" encoding="utf-8"?>
<!-- Generator: Adobe Illustrator 21.1.0, SVG Export Plug-In . SVG Version: 6.00 Build 0)  -->
<svg version="1.1" id="Group_1_1_" xmlns="http://www.w3.org/2000/svg" xmlns:xlink="http://www.w3.org/1999/xlink" x="0px" y="0px"
	 viewBox="0 0 1179 209" style="enable-background:new 0 0 1179 209;" xml:space="preserve">
<style type="text/css">
	.st0{fill-rule:evenodd;clip-rule:evenodd;fill:#939598;}
	.st1{fill:#B72126;}
</style>
<g id="Shape_4">
	<g>
		<path class="st0" d="M666.7,161.5H17.2C7.2,161.5-1,169.7-1,179.8c0,10.1,8.2,18.2,18.2,18.2h649.5c10.1,0,18.2-8.2,18.2-18.2
			C685,169.7,676.8,161.5,666.7,161.5z"/>
	</g>
</g>
<g id="Spark">
	<g>
		<path d="M23.3,77.2c-4.5-1.9-8.3-4.6-11.7-7.9c-3.3-3.3-6-7.2-7.9-11.7c-1.9-4.5-2.9-9.3-2.9-14.5c0-5.2,1-10,2.9-14.5
			c1.9-4.5,4.6-8.3,7.9-11.7c3.3-3.3,7.2-6,11.7-7.9c4.5-1.9,9.3-2.9,14.5-2.9h168.8c3.7,0,6.9,1.3,9.5,3.9c2.6,2.6,3.9,5.7,3.9,9.5
			c0,3.7-1.3,6.9-3.9,9.5c-2.6,2.6-5.7,3.9-9.5,3.9H37.2c-2.8,0-5.2,1-7.4,2.9c-2.1,1.9-3.2,4.4-3.2,7.4c0,2.8,1.1,5.2,3.2,7.2
			c2.1,2,4.6,3.1,7.4,3.1H191c5.2,0,10.1,1,14.6,2.9c4.5,1.9,8.5,4.6,11.8,7.9c3.3,3.3,6,7.3,7.9,11.8c1.9,4.5,2.9,9.4,2.9,14.6
			c0,5.2-1,10-2.9,14.5c-1.9,4.5-4.6,8.3-7.9,11.7c-3.3,3.3-7.3,5.9-11.8,7.8c-4.5,1.9-9.4,2.8-14.6,2.8H22.4
			c-3.7,0-6.9-1.3-9.5-3.9c-2.6-2.6-3.9-5.7-3.9-9.5c0-3.7,1.3-6.9,3.9-9.5c2.6-2.6,5.7-3.9,9.5-3.9h169.7c2.8,0,5.2-1,7.2-2.9
			c2-1.9,3.1-4.3,3.1-7.1c0-3-1-5.5-3.1-7.5c-2-2-4.5-3.1-7.2-3.1H37.7C32.5,80.1,27.7,79.1,23.3,77.2z"/>
		<path d="M256.1,19.4c0-3.7,1.3-6.9,3.9-9.5c2.6-2.6,5.7-3.9,9.5-3.9H436c5.2,0,10.1,1,14.6,2.9c4.5,1.9,8.5,4.6,12,7.9
			c3.4,3.3,6.1,7.2,8.1,11.7c1.9,4.5,2.9,9.3,2.9,14.5c0,5.2-1,10-2.9,14.5c-1.9,4.5-4.6,8.3-8.1,11.7c-3.4,3.3-7.4,6-12,7.9
			c-4.5,1.9-9.4,2.9-14.6,2.9H291.4c-2.4,0.4-4.5,1.5-6.1,3.3c-1.7,1.9-2.5,4.2-2.5,7V114c0,3.7-1.3,6.9-4,9.5
			c-2.7,2.6-5.8,3.9-9.3,3.9c-3.7,0-6.9-1.3-9.5-3.9c-2.6-2.6-3.9-5.7-3.9-9.5V87.3c0-4.6,0.8-9,2.5-13.2c1.7-4.2,4-7.8,7.1-10.8
			c3.1-3.1,6.6-5.5,10.6-7.2c4-1.8,8.4-2.6,13.2-2.6h147.7c2.8,0,5.2-1,7.4-2.9c2.1-1.9,3.2-4.4,3.2-7.4c0-2.8-1.1-5.2-3.2-7.2
			c-2.1-2-4.6-3.1-7.4-3.1H269.4c-3.7,0-6.9-1.3-9.5-3.9C257.4,26.3,256.1,23.2,256.1,19.4z"/>
		<path class="st1" d="M511.1,122.4c-2.8,3.3-6.2,5-10.3,5c-3.7,0-6.9-1.3-9.5-3.9c-2.6-2.6-3.9-5.7-3.9-9.5c0-3.3,0.9-6,2.8-8.1
			l67.6-91c3.2-4.3,7.3-7.7,12.5-10.4c5.2-2.7,10.8-4,16.7-4c5.6,0,10.8,1.2,15.9,3.6c5,2.4,9.1,5.7,12.2,10l67.6,90.4
			c1.1,1.3,2,2.7,2.8,4.3c0.7,1.6,1.1,3.3,1.1,5.1c0,3.7-1.3,6.9-3.9,9.5c-2.6,2.6-5.8,3.9-9.5,3.9c-4.4,0-8-1.8-10.6-5.3
			l-64.8-86.5c-1.3-1.5-2.9-3.1-4.9-4.9c-1.9-1.8-3.9-2.6-6-2.6c-2,0-4,0.9-6,2.6c-1.9,1.8-3.5,3.4-4.6,4.9L511.1,122.4z"/>
		<path d="M908.6,90.2c5.2,3.6,10.5,7.6,15.9,11.8c2,1.5,3.8,3.2,5.3,5.1c1.5,1.9,2.2,4.2,2.2,6.8c0,3.7-1.3,6.9-3.9,9.5
			c-2.6,2.6-5.8,3.9-9.5,3.9c-3.2,0-6.3-1.3-9.5-3.9c-7.6-5.6-15.4-10.9-23.4-16.1c-8-5.2-16.3-9.8-24.9-13.9
			c-8.6-4.1-17.6-7.3-26.8-9.7c-9.3-2.4-18.9-3.6-28.9-3.6h-55.3c-2.4,0.4-4.5,1.5-6.1,3.3c-1.7,1.9-2.5,4.2-2.5,7V114
			c0,3.7-1.3,6.9-4,9.5c-2.7,2.6-5.8,3.9-9.3,3.9c-3.7,0-6.9-1.3-9.5-3.9c-2.6-2.6-3.9-5.7-3.9-9.5V87.3c0-4.6,0.9-9,2.6-13.2
			c1.8-4.2,4.1-7.8,7.1-10.8c3-3.1,6.5-5.5,10.6-7.2c4.1-1.8,8.5-2.6,13.4-2.6h147.4c2.8,0,5.2-1,7.4-2.9c2.1-1.9,3.2-4.4,3.2-7.4
			c0-2.8-1.1-5.2-3.2-7.2c-2.1-2-4.6-3.1-7.4-3.1H727.8c-3.7,0-6.9-1.3-9.5-3.9c-2.6-2.6-3.9-5.7-3.9-9.5c0-3.7,1.3-6.9,3.9-9.5
			c2.6-2.6,5.7-3.9,9.5-3.9h166.6c5.2,0,10.1,1,14.6,2.9c4.5,1.9,8.5,4.6,12,7.9c3.4,3.3,6.1,7.2,8.1,11.7s2.9,9.3,2.9,14.5
			c0,5.2-1,10-2.9,14.5s-4.6,8.3-8.1,11.7c-3.4,3.3-7.4,6-12,7.9c-4.5,1.9-9.4,2.9-14.6,2.9h-1.1C898.3,83.2,903.4,86.6,908.6,90.2z
			"/>
		<path d="M986.2,53.4h64.2c9.6,0,19.1-1.3,28.4-3.8c9.3-2.5,18.3-5.8,27.1-9.9c8.8-4.1,17.2-8.7,25.3-13.9
			c8.1-5.2,15.8-10.5,23.2-15.9c3.2-2.6,6.3-3.9,9.5-3.9c3.7,0,6.9,1.3,9.5,3.9c2.6,2.6,3.9,5.7,3.9,9.5c0,2.6-0.7,4.9-2.2,6.8
			c-1.5,1.9-3.2,3.7-5.3,5.1c-4.8,3.7-9.5,7.2-13.9,10.4c-4.5,3.2-8.9,6.3-13.4,9s-9,5.5-13.8,8.1c-4.7,2.6-9.8,5.2-15.2,7.8
			c5.4,2.6,10.4,5.2,15.2,7.8c4.7,2.6,9.3,5.3,13.8,8.1c4.5,2.8,8.9,5.8,13.4,9c4.5,3.2,9.1,6.7,13.9,10.4c2,1.5,3.8,3.2,5.3,5.1
			c1.5,1.9,2.2,4.2,2.2,6.8c0,3.7-1.3,6.9-3.9,9.5c-2.6,2.6-5.8,3.9-9.5,3.9c-3.2,0-6.3-1.3-9.5-3.9c-7.6-5.6-15.4-10.9-23.5-16.1
			c-8.1-5.2-16.5-9.8-25.2-13.9c-8.7-4.1-17.7-7.3-27-9.7c-9.3-2.4-18.7-3.6-28.4-3.6h-64.2V114c0,3.7-1.3,6.9-3.9,9.5
			c-2.6,2.6-5.7,3.9-9.2,3.9c-3.7,0-6.9-1.3-9.5-3.9c-2.6-2.6-3.9-5.7-3.9-9.5V19.4c0-3.7,1.3-6.9,3.9-9.5c2.6-2.6,5.7-3.9,9.2-3.9
			c3.7,0,6.9,1.3,9.5,3.9c2.6,2.6,3.9,5.7,3.9,9.5V53.4z"/>
	</g>
</g>
<g id="Systems">
	<g>
		<path class="st1" d="M714.8,198.2c-0.2-3.4-0.5-6.2-0.8-8.2c2,0.8,3.9,1.4,5.5,1.7c1.6,0.3,3,0.5,4.2,0.5c1.6,0,2.8-0.2,3.8-0.6
			c0.9-0.4,1.4-1,1.4-1.8c0-0.3,0-0.5-0.1-0.8c-0.1-0.2-0.3-0.5-0.5-0.8s-0.6-0.7-1.1-1l-5.1-4c-1.2-0.9-2-1.6-2.5-2
			c-1-0.8-1.7-1.6-2.3-2.3s-0.9-1.4-1.2-2.2c-0.2-0.7-0.4-1.5-0.4-2.3c0-1,0.2-1.9,0.6-2.9c0.4-0.9,1-1.8,1.8-2.6
			c0.8-0.8,1.8-1.5,3.1-2.1s2.7-1,4.1-1.2s3-0.3,4.6-0.3c3.1,0,6.4,0.3,10,0.9c0.1,1.1,0.1,2.1,0.2,3.1c0.1,0.9,0.2,2.5,0.5,4.9
			c-1.7-0.6-3.2-1-4.6-1.2c-1.4-0.2-2.6-0.3-3.6-0.3c-1.4,0-2.6,0.2-3.5,0.7c-0.9,0.5-1.4,1-1.4,1.7c0,0.3,0.1,0.6,0.2,0.9
			c0.1,0.3,0.4,0.7,0.8,1.1s0.9,0.9,1.6,1.4s1.7,1.2,3.1,2.2l2,1.4c0.6,0.4,1.2,0.9,1.9,1.5c0.7,0.6,1.3,1.2,1.7,1.8
			s0.9,1.1,1.1,1.6s0.5,1,0.6,1.5c0.1,0.5,0.2,1,0.2,1.6c0,1.5-0.4,2.8-1.2,4.1c-0.8,1.3-1.9,2.4-3.3,3.2c-1.4,0.8-3,1.4-4.7,1.8
			c-1.7,0.3-3.5,0.5-5.4,0.5C723,199.3,719.3,198.9,714.8,198.2z"/>
		<path class="st1" d="M790,198.7c0.2-1.3,0.4-3.5,0.7-6.6s0.4-5.3,0.4-6.6l-12.5-19.7c2.7,0,5,0,6.8,0c1.7,0,3.8,0,6.1,0
			c0.7,1.6,1.7,3.5,3,5.8c1.2,2.2,2.3,4.2,3,6c2.1-3.3,3.8-5.8,5-7.6c1.3-1.8,2.2-3.2,2.7-4.1c2.3,0,4.5,0,6.7,0c1.1,0,3.2,0,6.1,0
			l-12,15.6c-2.4,3.1-3.6,4.8-3.6,4.9l0,0.2v0.2l0,0.2l-0.2,3.7c-0.1,2.4-0.2,5.1-0.3,8c-2.6,0-4.5,0-6,0
			C794.5,198.6,792.5,198.7,790,198.7z"/>
		<path class="st1" d="M853.9,198.2c-0.2-3.4-0.5-6.2-0.8-8.2c2,0.8,3.9,1.4,5.5,1.7c1.6,0.3,3,0.5,4.2,0.5c1.6,0,2.8-0.2,3.8-0.6
			c0.9-0.4,1.4-1,1.4-1.8c0-0.3,0-0.5-0.1-0.8c-0.1-0.2-0.3-0.5-0.5-0.8s-0.6-0.7-1.1-1l-5.1-4c-1.2-0.9-2-1.6-2.5-2
			c-1-0.8-1.7-1.6-2.3-2.3s-0.9-1.4-1.2-2.2c-0.2-0.7-0.4-1.5-0.4-2.3c0-1,0.2-1.9,0.6-2.9c0.4-0.9,1-1.8,1.8-2.6
			c0.8-0.8,1.8-1.5,3.1-2.1s2.7-1,4.1-1.2s3-0.3,4.6-0.3c3.1,0,6.4,0.3,10,0.9c0.1,1.1,0.1,2.1,0.2,3.1c0.1,0.9,0.2,2.5,0.5,4.9
			c-1.7-0.6-3.2-1-4.6-1.2c-1.4-0.2-2.6-0.3-3.6-0.3c-1.4,0-2.6,0.2-3.5,0.7c-0.9,0.5-1.4,1-1.4,1.7c0,0.3,0.1,0.6,0.2,0.9
			c0.1,0.3,0.4,0.7,0.8,1.1s0.9,0.9,1.6,1.4s1.7,1.2,3.1,2.2l2,1.4c0.6,0.4,1.2,0.9,1.9,1.5c0.7,0.6,1.3,1.2,1.7,1.8
			s0.9,1.1,1.1,1.6s0.5,1,0.6,1.5c0.1,0.5,0.2,1,0.2,1.6c0,1.5-0.4,2.8-1.2,4.1c-0.8,1.3-1.9,2.4-3.3,3.2c-1.4,0.8-3,1.4-4.7,1.8
			c-1.7,0.3-3.5,0.5-5.4,0.5C862.1,199.3,858.3,198.9,853.9,198.2z"/>
		<path class="st1" d="M929.4,198.7c0.9-7.8,1.4-16.5,1.6-25.9l-11.6,0.3l0.1-2.7c0.1-1.4,0.1-3,0.2-4.7c5.2,0,11.2,0,18.1,0l6.7,0
			h6.5l3.5,0l-0.2,2.4c-0.1,1.3-0.1,2.3-0.2,3.1s0,1.5,0,1.9c-3.9-0.2-7.1-0.3-9.6-0.3h-1.9c-0.3,2.8-0.5,5.5-0.6,7.9
			c-0.2,3.5-0.4,6.8-0.5,10.1c-0.1,3.3-0.2,5.9-0.2,7.9c-3,0-4.9,0-5.8,0C934.9,198.6,932.8,198.7,929.4,198.7z"/>
		<path class="st1" d="M992.6,198.7c0.5-4.2,0.8-7.6,1-10.4c0.2-2.8,0.4-6.5,0.6-11.2c0.2-4.6,0.3-7.7,0.3-9.2l0-2.1
			c4.3,0,9.5,0,15.6,0c5.6,0,10.6,0,14.9,0l-0.1,0.8c0,0.2-0.1,0.9-0.1,2.1l-0.2,2.6c0,0.6-0.1,1.1-0.1,1.7
			c-3.5-0.1-6.5-0.2-8.8-0.2c-2.6,0-4.4,0-5.3,0s-2.4,0-4.3,0.1l-0.3,5.6c2.1,0,4.7,0.1,7.5,0.1c1,0,3.7-0.1,8.1-0.2
			c-0.2,2.1-0.4,4.5-0.5,7.4c-3.1,0-5.6,0-7.3,0c-2.5,0-5.3,0.1-8.4,0.2l-0.3,5.9h3.1c0.9,0,2.8,0,5.8-0.1l5.6-0.1
			c0.8,0,2.2-0.1,4.2-0.2c-0.2,2.4-0.4,4.8-0.5,7.4c-4.4,0-9.3,0-14.6,0l-12,0L992.6,198.7z"/>
		<path class="st1" d="M1064.9,198.7l0.7-4.9l1.7-16.9l0.8-11.2c3.4,0,6,0,7.9,0c1.6,0,4,0,7.3,0c0.2,1.4,0.4,2.4,0.6,3.2
			c0.2,0.7,0.6,2.1,1.2,4.2s1.2,3.9,1.6,5.4c0.4,1.5,1,4.1,1.8,7.8c0.8-2.5,1.5-4.7,2.2-6.5s1.5-3.9,2.5-6.2s1.6-3.8,1.9-4.6
			s0.6-1.8,1.1-3.3c2.7,0,5.4,0,8,0c1.8,0,4.3,0,7.4,0c-0.3,5.4-0.6,10.1-0.7,14c-0.2,7.6-0.4,12.9-0.4,15.8c0,0.6,0,1.7,0.1,3.2
			c-2.4,0-4.1,0-5,0c-1.4,0-3.1,0-5.2,0c0.1-1.5,0.3-4.9,0.6-10.4c0.2-5.5,0.3-8.9,0.3-10.5c0-0.7,0-1.6-0.1-2.8l-3.6,9.8l-5.1,13.7
			c-2.4,0-4,0-4.9,0c-1.1,0-2.9,0-5.2,0l-3.4-13.3l-2-7.1c-0.1-0.3-0.2-0.6-0.2-1c-0.1-0.4-0.2-1.1-0.4-2.1l-0.7,6.7l-0.9,13.7
			l-0.1,3.1c-2.5,0-4.1,0-4.8,0C1068.9,198.6,1067.3,198.7,1064.9,198.7z"/>
		<path class="st1" d="M1152.8,198.2c-0.2-3.4-0.5-6.2-0.8-8.2c2,0.8,3.9,1.4,5.5,1.7c1.6,0.3,3,0.5,4.2,0.5c1.6,0,2.8-0.2,3.8-0.6
			c0.9-0.4,1.4-1,1.4-1.8c0-0.3,0-0.5-0.1-0.8c-0.1-0.2-0.3-0.5-0.5-0.8s-0.6-0.7-1.1-1l-5.1-4c-1.2-0.9-2-1.6-2.5-2
			c-1-0.8-1.7-1.6-2.3-2.3s-0.9-1.4-1.2-2.2c-0.2-0.7-0.4-1.5-0.4-2.3c0-1,0.2-1.9,0.6-2.9c0.4-0.9,1-1.8,1.8-2.6
			c0.8-0.8,1.8-1.5,3.1-2.1s2.7-1,4.1-1.2s3-0.3,4.6-0.3c3.1,0,6.4,0.3,10,0.9c0.1,1.1,0.1,2.1,0.2,3.1c0.1,0.9,0.2,2.5,0.5,4.9
			c-1.7-0.6-3.2-1-4.6-1.2c-1.4-0.2-2.6-0.3-3.6-0.3c-1.4,0-2.6,0.2-3.5,0.7c-0.9,0.5-1.4,1-1.4,1.7c0,0.3,0.1,0.6,0.2,0.9
			c0.1,0.3,0.4,0.7,0.8,1.1s0.9,0.9,1.6,1.4s1.7,1.2,3.1,2.2l2,1.4c0.6,0.4,1.2,0.9,1.9,1.5c0.7,0.6,1.3,1.2,1.7,1.8
			s0.9,1.1,1.1,1.6s0.5,1,0.6,1.5c0.1,0.5,0.2,1,0.2,1.6c0,1.5-0.4,2.8-1.2,4.1c-0.8,1.3-1.9,2.4-3.3,3.2c-1.4,0.8-3,1.4-4.7,1.8
			c-1.7,0.3-3.5,0.5-5.4,0.5C1161,199.3,1157.2,198.9,1152.8,198.2z"/>
	</g>
</g>
</svg>
